HIERARCHY
ROOT hip
{
  OFFSET 230.064 77.1416 99.9813
  CHANNELS 6 Xposition Yposition Zposition Zrotation Xrotation Yrotation
  JOINT abdomen
  {
    OFFSET 0 20.6881 -0.73152
    CHANNELS 3 Zrotation Xrotation Yrotation
    JOINT chest
    {
      OFFSET 0 11.7043 -0.48768
      CHANNELS 3 Zrotation Xrotation Yrotation
      JOINT neck
      {
        OFFSET 0 22.1894 -2.19456
        CHANNELS 3 Zrotation Xrotation Yrotation
        JOINT head
        {
          OFFSET -0.24384 7.07133 1.2192
          CHANNELS 3 Zrotation Xrotation Yrotation
          JOINT leftEye
          {
            OFFSET 4.14528 8.04674 8.04672
            CHANNELS 3 Zrotation Xrotation Yrotation
            End Site
            {
              OFFSET 1 0 0
            }
          }
          JOINT rightEye
          {
            OFFSET -3.6576 8.04674 8.04672
            CHANNELS 3 Zrotation Xrotation Yrotation
            End Site
            {
              OFFSET 1 0 0
            }
          }
        }
      }
      JOINT rCollar
      {
        OFFSET -2.68224 19.2634 -4.8768
        CHANNELS 3 Zrotation Xrotation Yrotation
        JOINT rShldr
        {
          OFFSET -8.77824 -1.95073 1.46304
          CHANNELS 3 Zrotation Xrotation Yrotation
          JOINT rForeArm
          {
            OFFSET -28.1742 -1.7115 0.48768
            CHANNELS 3 Zrotation Xrotation Yrotation
            JOINT rHand
            {
              OFFSET -22.5879 0.773209 7.07136
              CHANNELS 3 Zrotation Xrotation Yrotation
              JOINT rThumb1
              {
                OFFSET -1.2192 -0.487915 3.41376
                CHANNELS 3 Zrotation Xrotation Yrotation
                JOINT rThumb2
                {
                  OFFSET -3.37035 -0.52449 3.41376
                  CHANNELS 3 Zrotation Xrotation Yrotation
                  End Site
                  {
                    OFFSET -1.78271 -1.18214 1.43049
                  }
                }
              }
              JOINT rIndex1
              {
                OFFSET -7.75947 0.938293 5.60832
                CHANNELS 3 Zrotation Xrotation Yrotation
                JOINT rIndex2
                {
                  OFFSET -2.54057 -0.884171 1.56538
                  CHANNELS 3 Zrotation Xrotation Yrotation
                  End Site
                  {
                    OFFSET -1.62519 -0.234802 1.16502
                  }
                }
              }
              JOINT rMid1
              {
                OFFSET -8.24714 1.18213 3.41376
                CHANNELS 3 Zrotation Xrotation Yrotation
                JOINT rMid2
                {
                  OFFSET -3.10165 -0.590103 1.0647
                  CHANNELS 3 Zrotation Xrotation Yrotation
                  End Site
                  {
                    OFFSET -2.48547 -0.328903 0.83742
                  }
                }
              }
              JOINT rRing1
              {
                OFFSET -8.82822 0.546677 1.51678
                CHANNELS 3 Zrotation Xrotation Yrotation
                JOINT rRing2
                {
                  OFFSET -2.60934 -0.819778 -0.0198488
                  CHANNELS 3 Zrotation Xrotation Yrotation
                  End Site
                  {
                    OFFSET -2.33842 -0.294052 0.168128
                  }
                }
              }
              JOINT rPinky1
              {
                OFFSET -8.27202 -0.0477905 -0.4584
                CHANNELS 3 Zrotation Xrotation Yrotation
                JOINT rPinky2
                {
                  OFFSET -1.82734 -0.647385 -0.700984
                  CHANNELS 3 Zrotation Xrotation Yrotation
                  End Site
                  {
                    OFFSET -1.69225 -0.51767 -0.607171
                  }
                }
              }
            }
          }
        }
      }
      JOINT lCollar
      {
        OFFSET 2.68224 19.2634 -4.8768
        CHANNELS 3 Zrotation Xrotation Yrotation
        JOINT lShldr
        {
          OFFSET 8.77824 -1.95073 1.46304
          CHANNELS 3 Zrotation Xrotation Yrotation
          JOINT lForeArm
          {
            OFFSET 28.1742 -1.7115 0.48768
            CHANNELS 3 Zrotation Xrotation Yrotation
            JOINT lHand
            {
              OFFSET 22.5879 0.773209 7.07136
              CHANNELS 3 Zrotation Xrotation Yrotation
              JOINT lThumb1
              {
                OFFSET 1.2192 -0.487915 3.41376
                CHANNELS 3 Zrotation Xrotation Yrotation
                JOINT lThumb2
                {
                  OFFSET 3.37035 -0.52449 3.41376
                  CHANNELS 3 Zrotation Xrotation Yrotation
                  End Site
                  {
                    OFFSET 1.78271 -1.18214 1.43049
                  }
                }
              }
              JOINT lIndex1
              {
                OFFSET 7.75947 0.938293 5.60832
                CHANNELS 3 Zrotation Xrotation Yrotation
                JOINT lIndex2
                {
                  OFFSET 2.54057 -0.884171 1.56538
                  CHANNELS 3 Zrotation Xrotation Yrotation
                  End Site
                  {
                    OFFSET 1.62519 -0.234802 1.16502
                  }
                }
              }
              JOINT lMid1
              {
                OFFSET 8.24714 1.18213 3.41376
                CHANNELS 3 Zrotation Xrotation Yrotation
                JOINT lMid2
                {
                  OFFSET 3.10165 -0.590103 1.0647
                  CHANNELS 3 Zrotation Xrotation Yrotation
                  End Site
                  {
                    OFFSET 2.48547 -0.328903 0.83742
                  }
                }
              }
              JOINT lRing1
              {
                OFFSET 8.82822 0.546677 1.51678
                CHANNELS 3 Zrotation Xrotation Yrotation
                JOINT lRing2
                {
                  OFFSET 2.60934 -0.819778 -0.0198488
                  CHANNELS 3 Zrotation Xrotation Yrotation
                  End Site
                  {
                    OFFSET 2.33842 -0.294052 0.168128
                  }
                }
              }
              JOINT lPinky1
              {
                OFFSET 8.27202 -0.0477905 -0.4584
                CHANNELS 3 Zrotation Xrotation Yrotation
                JOINT lPinky2
                {
                  OFFSET 1.82734 -0.647385 -0.700984
                  CHANNELS 3 Zrotation Xrotation Yrotation
                  End Site
                  {
                    OFFSET 1.69225 -0.51767 -0.607171
                  }
                }
              }
            }
          }
        }
      }
    }
  }
  JOINT rButtock
  {
    OFFSET -8.77824 4.35084 1.2192
    CHANNELS 3 Zrotation Xrotation Yrotation
    JOINT rThigh
    {
      OFFSET 0 -1.70687 -2.19456
      CHANNELS 3 Zrotation Xrotation Yrotation
      JOINT rShin
      {
        OFFSET 0 -36.8199 0.73152
        CHANNELS 3 Zrotation Xrotation Yrotation
        JOINT rFoot
        {
          OFFSET 0.73152 -45.1104 -5.12064
          CHANNELS 3 Zrotation Xrotation Yrotation
          End Site
          {
            OFFSET -1.1221 -3.69964 12.103
          }
        }
      }
    }
  }
  JOINT lButtock
  {
    OFFSET 8.77824 4.35084 1.2192
    CHANNELS 3 Zrotation Xrotation Yrotation
    JOINT lThigh
    {
      OFFSET 0 -1.70687 -2.19456
      CHANNELS 3 Zrotation Xrotation Yrotation
      JOINT lShin
      {
        OFFSET 0 -36.8199 0.73152
        CHANNELS 3 Zrotation Xrotation Yrotation
        JOINT lFoot
        {
          OFFSET -0.73152 -45.1104 -5.12064
          CHANNELS 3 Zrotation Xrotation Yrotation
          End Site
          {
            OFFSET 1.1221 -3.69964 12.103
          }
        }
      }
    }
  }
}
MOTION
Frames:	8
Frame Time:	0.00833333
29.7034 71.5807 24.9129 7.13214 -4.3105 -138.931 -7.11465 47.7347 9.3947 2.4845 -6.18999 0.352971 -17.3986 11.1173 -4.24408 49.3986 -50.0786 12.7652 -0 0 0 -0 0 0 1.71719e-013 -3.18019e-013 6.68413e-014 64.2033 -15.4642 3.17429 -19.0099 -11.8153 36.3273 -0.762986 -24.0029 -3.58799 6.17845e-010 -1.27223e-009 -5.21143e-010 1.08344e-009 -2.22047e-009 -8.919e-010 6.17844e-010 -1.27223e-009 -5.21153e-010 7.73091 5.47488 0.417314 6.17844e-010 -1.27223e-009 -5.2115e-010 2.90554 0.965183 0.102902 6.17852e-010 -1.27223e-009 -5.21143e-010 10.2786 0.731801 0.0259123 6.17837e-010 -1.27223e-009 -5.21137e-010 2.22167 -0.733487 -0.20892 1.71792e-013 -3.18092e-013 6.66923e-014 -40.1004 -21.1271 -16.3878 28.0693 -31.0421 -68.9148 0.882873 -25.6715 3.87338 2.66707e-010 -2.5869e-010 1.24923e-009 4.38744e-010 -4.58286e-010 2.16221e-009 2.66702e-010 -2.58696e-010 1.24922e-009 -7.73091 5.47488 -0.417314 2.66705e-010 -2.58696e-010 1.24922e-009 -2.90554 0.965183 -0.102902 2.66702e-010 -2.58694e-010 1.24923e-009 -10.2786 0.731801 -0.0259123 2.66713e-010 -2.58691e-010 1.24922e-009 -2.22167 -0.733487 0.20892 -2.03217e-016 0 -3.88251e-019 -36.2059 -42.9147 -58.6968 -8.48435 83.4219 8.71744 -0.236251 -3.97185 0.910631 2.03217e-016 0 3.88251e-019 60.7846 -51.3263 75.6709 26.9901 87.7004 -27.2592 -0.352428 0.58656 -7.30647 
30.9887 71.3794 23.8259 7.56371 -3.83679 -139.309 -6.6918 48.0923 9.45503 2.66476 -6.2749 0.374689 -17.282 10.7399 -4.19051 49.4019 -50.2235 12.9492 -0 0 0 -0 0 0 2.76371e-013 -2.06637e-013 -8.82119e-014 64.7163 -16.912 3.72309 -18.4835 -11.2181 35.1135 -0.688128 -22.9132 -3.40483 4.57579e-010 -1.62398e-009 -1.0448e-009 8.1704e-010 -2.84066e-009 -1.8034e-009 4.57579e-010 -1.62398e-009 -1.0448e-009 7.73091 5.47488 0.417314 4.57579e-010 -1.62399e-009 -1.0448e-009 2.90554 0.965183 0.102902 4.57586e-010 -1.62399e-009 -1.0448e-009 10.2786 0.731801 0.0259123 4.57573e-010 -1.62399e-009 -1.04479e-009 2.22167 -0.733487 -0.20892 2.7644e-013 -2.06686e-013 -8.83485e-014 -40.5083 -21.232 -16.2278 28.0969 -31.2226 -69.2021 0.876795 -25.5909 3.8594 8.4867e-010 -2.01842e-010 2.26597e-009 1.4262e-009 -3.70382e-010 3.92564e-009 8.48665e-010 -2.01847e-010 2.26597e-009 -7.73091 5.47488 -0.417314 8.48668e-010 -2.01848e-010 2.26597e-009 -2.90554 0.965183 -0.102902 8.48665e-010 -2.01846e-010 2.26597e-009 -10.2786 0.731801 -0.0259123 8.48676e-010 -2.01844e-010 2.26596e-009 -2.22167 -0.733487 0.20892 -2.03217e-016 0 -3.88251e-019 -35.7913 -42.9549 -56.9172 -7.18536 82.4046 7.44812 -0.621232 -4.90339 -0.858273 2.03217e-016 0 3.88251e-019 60.7557 -51.8734 75.5317 26.7599 87.6886 -27.0566 -0.316863 3.02821 -9.82618 
32.2974 71.0481 22.7782 7.92488 -3.35687 -139.756 -6.32969 48.4802 9.56364 2.78347 -6.28796 0.38586 -17.1186 10.2924 -4.16718 49.1764 -50.372 12.9683 -0 0 0 -0 0 0 3.76847e-013 -1.84798e-014 -2.87396e-013 65.3721 -18.6068 4.42014 -17.9488 -10.6395 33.8888 -0.60994 -21.685 -3.20227 2.53851e-010 -2.15775e-009 -1.68266e-009 4.76443e-010 -3.77672e-009 -2.91354e-009 2.53854e-010 -2.15775e-009 -1.68267e-009 7.73091 5.47488 0.417314 2.53852e-010 -2.15775e-009 -1.68267e-009 2.90554 0.965183 0.102902 2.53859e-010 -2.15775e-009 -1.68267e-009 10.2786 0.731801 0.0259123 2.53848e-010 -2.15775e-009 -1.68267e-009 2.22167 -0.733487 -0.20892 3.76904e-013 -1.84935e-014 -2.87514e-013 -41.0417 -21.4169 -16.1634 28.1256 -31.4215 -69.5226 0.866214 -25.4491 3.83485 1.56144e-009 -1.0722e-010 3.46668e-009 2.63662e-009 -2.19398e-010 6.00846e-009 1.56144e-009 -1.07225e-010 3.46668e-009 -7.73091 5.47488 -0.417314 1.56144e-009 -1.07226e-010 3.46668e-009 -2.90554 0.965183 -0.102902 1.56144e-009 -1.07225e-010 3.46668e-009 -10.2786 0.731801 -0.0259123 1.56145e-009 -1.07223e-010 3.46667e-009 -2.22167 -0.733487 0.20892 -2.03217e-016 0 -3.88251e-019 -35.3228 -42.9596 -54.5611 -6.02951 81.1942 6.32861 -1.00125 -5.85843 -2.40011 2.03217e-016 0 3.88251e-019 60.4215 -52.4104 74.8547 22.8682 87.3523 -23.2129 0.0963361 6.22844 -12.3612 
33.6117 70.7263 21.7027 8.24657 -2.90225 -140.253 -6.01742 48.8475 9.70189 2.86867 -6.28965 0.398063 -16.9623 9.82818 -4.15191 48.8732 -50.4865 12.9271 -0 0 0 -0 0 0 4.36779e-013 1.62224e-013 -4.47816e-013 66.0679 -20.2982 5.10263 -17.4487 -10.1143 32.7735 -0.544028 -20.5362 -3.01683 1.45461e-010 -2.60576e-009 -2.16652e-009 2.97089e-010 -4.56034e-009 -3.75511e-009 1.45466e-010 -2.60577e-009 -2.16653e-009 7.73091 5.47488 0.417314 1.45462e-010 -2.60577e-009 -2.16652e-009 2.90554 0.965183 0.102902 1.45468e-010 -2.60577e-009 -2.16653e-009 10.2786 0.731801 0.0259123 1.4546e-010 -2.60577e-009 -2.16653e-009 2.22167 -0.733487 -0.20892 4.36814e-013 1.62243e-013 -4.47918e-013 -41.6916 -21.593 -16.1586 28.155 -31.6353 -69.868 0.853748 -25.28 3.8057 2.09391e-009 -5.83796e-012 4.32798e-009 3.54177e-009 -5.30696e-011 7.50248e-009 2.0939e-009 -5.84242e-012 4.32799e-009 -7.73091 5.47488 -0.417314 2.0939e-009 -5.84405e-012 4.32799e-009 -2.90554 0.965183 -0.102902 2.0939e-009 -5.84377e-012 4.32798e-009 -10.2786 0.731801 -0.0259123 2.09391e-009 -5.84176e-012 4.32797e-009 -2.22167 -0.733487 0.20892 -2.03217e-016 0 -3.88251e-019 -34.9169 -42.9026 -51.9962 -5.04512 79.8093 5.37839 -1.41407 -6.65432 -3.93696 2.03217e-016 0 3.88251e-019 59.8275 -52.8742 73.8071 18.4659 86.8042 -18.8627 0.70033 9.02474 -14.484 
34.8354 70.3823 20.6004 8.55781 -2.50601 -140.782 -5.7426 49.1433 9.84987 2.94847 -6.34046 0.422886 -16.8663 9.40055 -4.12246 48.6448 -50.529 12.9311 -0 0 0 -0 0 0 4.19796e-013 2.51246e-013 -4.86575e-013 66.6686 -21.7401 5.59522 -17.0336 -9.68396 31.8862 -0.500105 -19.6848 -2.88199 2.71207e-010 -2.70026e-009 -2.22815e-009 5.14417e-010 -4.72319e-009 -3.86091e-009 2.71214e-010 -2.70026e-009 -2.22815e-009 7.73091 5.47488 0.417314 2.71208e-010 -2.70026e-009 -2.22815e-009 2.90554 0.965183 0.102902 2.71214e-010 -2.70026e-009 -2.22815e-009 10.2786 0.731801 0.0259123 2.71208e-010 -2.70026e-009 -2.22815e-009 2.22167 -0.733487 -0.20892 4.19799e-013 2.51282e-013 -4.86675e-013 -42.4487 -21.671 -16.1772 28.185 -31.861 -70.2297 0.841894 -25.1179 3.77783 2.13494e-009 7.1289e-011 4.32651e-009 3.61338e-009 8.08656e-011 7.49956e-009 2.13493e-009 7.1285e-011 4.32651e-009 -7.73091 5.47488 -0.417314 2.13494e-009 7.12832e-011 4.32651e-009 -2.90554 0.965183 -0.102902 2.13494e-009 7.1283e-011 4.3265e-009 -10.2786 0.731801 -0.0259123 2.13495e-009 7.1285e-011 4.3265e-009 -2.22167 -0.733487 0.20892 -2.03217e-016 0 -3.88251e-019 -34.6805 -42.8134 -49.6002 -4.23034 78.2688 4.58674 -1.8901 -7.10705 -5.68904 2.03217e-016 0 3.88251e-019 59.0376 -53.2041 72.5789 15.0823 86.1747 -15.5191 1.05827 10.3244 -15.6839 
36.0501 69.994 19.4995 8.85184 -2.19204 -141.372 -5.52319 49.3302 10.0346 3.01568 -6.47106 0.473044 -16.9279 9.03714 -4.10528 48.5963 -50.4227 12.964 -0 0 0 -0 0 0 2.66995e-013 1.95267e-013 -3.19637e-013 67.0637 -22.8979 5.79016 -16.7287 -9.37409 31.2483 -0.478053 -19.2316 -2.81094 8.52986e-010 -2.23557e-009 -1.5903e-009 1.50646e-009 -3.90314e-009 -2.74702e-009 8.52992e-010 -2.23557e-009 -1.5903e-009 7.73091 5.47488 0.417314 8.52986e-010 -2.23558e-009 -1.59029e-009 2.90554 0.965183 0.102902 8.52991e-010 -2.23557e-009 -1.5903e-009 10.2786 0.731801 0.0259123 8.52986e-010 -2.23557e-009 -1.5903e-009 2.22167 -0.733487 -0.20892 2.66944e-013 1.95295e-013 -3.19752e-013 -43.3546 -21.5876 -16.216 28.2162 -32.1067 -70.6211 0.830741 -24.9646 3.75151 1.34336e-009 1.20912e-010 2.85748e-009 2.2731e-009 1.83689e-010 4.95027e-009 1.34335e-009 1.20908e-010 2.85749e-009 -7.73091 5.47488 -0.417314 1.34336e-009 1.20906e-010 2.85748e-009 -2.90554 0.965183 -0.102902 1.34336e-009 1.20906e-010 2.85748e-009 -10.2786 0.731801 -0.0259123 1.34337e-009 1.20908e-010 2.85747e-009 -2.22167 -0.733487 0.20892 -2.03217e-016 0 -3.88251e-019 -34.6689 -42.7613 -47.4204 -3.55751 76.5581 3.92134 -2.4282 -7.07018 -7.82122 2.03217e-016 0 3.88251e-019 57.9061 -53.3285 71.1218 12.2866 85.4023 -12.7444 0.879683 9.71941 -15.6275 
37.2925 69.4611 18.4068 9.11682 -1.93863 -142.023 -5.3581 49.443 10.2553 3.06049 -6.64432 0.539184 -17.0913 8.70506 -4.10131 48.6246 -50.2102 12.9839 -0 0 0 -0 0 0 1.41762e-014 4.94949e-014 -1.18556e-014 67.3223 -23.8958 5.79065 -16.5186 -9.1705 30.7953 -0.468339 -19.0464 -2.78168 1.75514e-009 -1.39927e-009 -4.64591e-010 3.04256e-009 -2.42904e-009 -7.82393e-010 1.75515e-009 -1.39927e-009 -4.64595e-010 7.73091 5.47488 0.417314 1.75514e-009 -1.39928e-009 -4.64587e-010 2.90554 0.965183 0.102902 1.75514e-009 -1.39927e-009 -4.64594e-010 10.2786 0.731801 0.0259123 1.75514e-009 -1.39927e-009 -4.6459e-010 2.22167 -0.733487 -0.20892 1.40522e-014 4.94993e-014 -1.19985e-014 -44.3994 -21.4035 -16.2923 28.247 -32.3697 -71.0436 0.819183 -24.8042 3.72406 -2.88316e-011 1.57897e-010 3.55106e-010 -5.14979e-011 2.76191e-010 6.08046e-010 -2.88389e-011 1.57894e-010 3.5511e-010 -7.73091 5.47488 -0.417314 -2.88345e-011 1.57892e-010 3.55105e-010 -2.90554 0.965183 -0.102902 -2.88349e-011 1.57892e-010 3.55102e-010 -10.2786 0.731801 -0.0259123 -2.88248e-011 1.57895e-010 3.55093e-010 -2.22167 -0.733487 0.20892 -2.03217e-016 0 -3.88251e-019 -34.811 -42.7217 -45.2721 -3.00108 74.6739 3.36187 -2.95667 -6.67471 -10.1737 2.03217e-016 0 3.88251e-019 56.4724 -53.2735 69.3839 9.94745 84.446 -10.4166 0.36732 7.85398 -14.64 
38.509 68.9821 17.363 9.37265 -1.71186 -142.676 -5.20521 49.5399 10.4491 3.10693 -6.81909 0.599777 -17.1786 8.36681 -4.05024 48.57 -50.0321 13.0592 -0 0 0 -0 0 0 -2.32981e-013 -1.07507e-013 2.96325e-013 67.5679 -24.7287 5.73157 -16.3942 -9.05589 30.5167 -0.464946 -19.0012 -2.77417 2.58015e-009 -5.13404e-010 6.83882e-010 4.44514e-009 -8.69058e-010 1.22084e-009 2.58016e-009 -5.13409e-010 6.83879e-010 7.73091 5.47488 0.417314 2.58015e-009 -5.13409e-010 6.83888e-010 2.90554 0.965183 0.102902 2.58015e-009 -5.13405e-010 6.83881e-010 10.2786 0.731801 0.0259123 2.58015e-009 -5.13401e-010 6.83889e-010 2.22167 -0.733487 -0.20892 -2.3317e-013 -1.07529e-013 2.96151e-013 -45.4963 -21.216 -16.3995 28.2749 -32.6317 -71.469 0.807797 -24.6446 3.69682 -1.40297e-009 1.78407e-010 -2.14554e-009 -2.37981e-009 3.39895e-010 -3.731e-009 -1.40298e-009 1.78404e-010 -2.14554e-009 -7.73091 5.47488 -0.417314 -1.40297e-009 1.78402e-010 -2.14554e-009 -2.90554 0.965183 -0.102902 -1.40297e-009 1.78403e-010 -2.14555e-009 -10.2786 0.731801 -0.0259123 -1.40296e-009 1.78406e-010 -2.14556e-009 -2.22167 -0.733487 0.20892 -2.03217e-016 0 -3.88251e-019 -35.0174 -42.6286 -43.1936 -2.54472 72.6526 2.89797 -3.41455 -6.15405 -12.4812 2.03217e-016 0 3.88251e-019 55.083 -53.1423 67.5586 8.30272 83.4842 -8.782 -0.229905 5.24006 -13.1586 
